<?xml version="1.0" encoding="UTF-8" standalone="no"?>
<svg
   version="1.1"
   width="800"
   height="800"
   id="svg82"
   sodipodi:docname="logo.svg"
   inkscape:version="1.1 (c68e22c387, 2021-05-23)"
   xmlns:inkscape="http://www.inkscape.org/namespaces/inkscape"
   xmlns:sodipodi="http://sodipodi.sourceforge.net/DTD/sodipodi-0.dtd"
   xmlns="http://www.w3.org/2000/svg"
   xmlns:svg="http://www.w3.org/2000/svg">
  <defs
     id="defs86" />
  <sodipodi:namedview
     id="namedview84"
     pagecolor="#ffffff"
     bordercolor="#666666"
     borderopacity="1.0"
     inkscape:pageshadow="2"
     inkscape:pageopacity="0.0"
     inkscape:pagecheckerboard="0"
     showgrid="false"
     inkscape:zoom="0.49714457"
     inkscape:cx="-243.38996"
     inkscape:cy="355.02751"
     inkscape:window-width="1271"
     inkscape:window-height="1003"
     inkscape:window-x="2707"
     inkscape:window-y="31"
     inkscape:window-maximized="0"
     inkscape:current-layer="svg82"
     height="800px" />
  <g
     id="g2064"
     transform="translate(3.825864,114.70227)">
    <path
       id="rect215"
       style="stroke-width:33.8884;stroke-linejoin:round;stop-color:#000000"
       d="m 31.000262,58.908168 72.271628,-1.442437 292.58006,49.745149 285.4777,-49.576348 80.01836,1.273636 -1.04609,471.599542 -329.96196,-1.08282 c -10.66741,7.93228 -15.55972,15.90696 -33.74833,22.58718 -18.09491,-5.44179 -22.31639,-15.03666 -33.47093,-22.58718 L 33.092419,528.34207 Z"
       sodipodi:nodetypes="ccccccccccc" />
    <path
       d="m 675.2757,23.982769 c 0,134.640001 0,269.280001 0,408.000001 -13.53,1.65 -27.06,3.3 -41,5 -75.65009,11.66148 -159.73296,34.40993 -221.14697,82.68774 -1.85303,1.31226 -1.85303,1.31226 -3.85303,1.31226 0,-32.01 0,-64.02 0,-97 7.79883,-0.0374 15.59766,-0.0748 23.63281,-0.11328 4.94013,-0.0303 9.88022,-0.0614 14.82032,-0.0957 7.84145,-0.0543 15.68283,-0.10545 23.52441,-0.13746 6.32192,-0.026 12.64359,-0.0664 18.96536,-0.11675 2.41209,-0.0167 4.82422,-0.0282 7.23636,-0.0344 3.37817,-0.01 6.75572,-0.0377 10.13373,-0.07 0.99766,10e-4 1.99532,0.003 3.02321,0.004 5.27604,-0.0715 9.14991,-0.38624 13.6638,-3.43672 2.25697,-3.38546 2.25653,-4.55495 2.27847,-8.52385 0.0112,-1.14845 0.0223,-2.2969 0.0338,-3.48015 0.002,-1.26091 0.004,-2.52183 0.007,-3.82095 0.009,-1.34033 0.0195,-2.68066 0.0304,-4.02098 0.0273,-3.64019 0.0425,-7.28034 0.0554,-10.92061 0.0156,-3.80372 0.0424,-7.60736 0.068,-11.41103 0.0468,-7.20347 0.0835,-14.40697 0.11667,-21.61052 0.0382,-8.20069 0.0876,-16.4013 0.13798,-24.60192 0.10337,-16.86994 0.19261,-33.73992 0.2726,-50.60999 1.32391,-0.0219 1.32391,-0.0219 2.67456,-0.0442 3.28983,-0.0612 6.57884,-0.13541 9.86816,-0.21826 1.42079,-0.0332 2.84171,-0.0612 4.2627,-0.084 2.04849,-0.0337 4.09581,-0.086 6.1438,-0.14184 1.23065,-0.0262 2.4613,-0.0524 3.72925,-0.0794 3.55006,-0.46212 5.46181,-1.32444 8.32153,-3.43237 1.91047,-2.51835 2.01039,-3.75572 1.875,-6.9375 -1.68181,-5.88633 -5.98959,-9.14665 -10.48438,-12.99219 -2.76012,-2.3903 -5.45422,-4.84803 -8.14062,-7.32031 -0.50837,-0.46729 -1.01675,-0.93457 -1.54053,-1.41602 -1.04568,-0.96162 -2.09109,-1.92353 -3.13623,-2.88574 -2.56387,-2.36016 -5.13044,-4.71736 -7.69824,-7.07324 -0.49983,-0.45858 -0.99967,-0.91717 -1.51465,-1.38965 -3.91019,-3.58285 -7.85085,-7.13067 -11.79785,-10.67285 -3.38725,-3.05679 -6.74658,-6.14364 -10.10596,-9.23096 -3.09254,-2.83936 -6.20334,-5.65655 -9.33154,-8.45654 -4.12863,-3.70245 -8.19401,-7.46852 -12.25,-11.25 -4.19513,-3.9103 -8.41951,-7.76459 -12.76172,-11.51172 -3.45449,-3.04582 -6.81784,-6.19014 -10.19556,-9.32056 -3.2831,-3.04043 -6.58457,-6.057 -9.91772,-9.04272 -3.86663,-3.4649 -7.69014,-6.97305 -11.5,-10.5 -4.61604,-4.27287 -9.26651,-8.50325 -13.94922,-12.70312 -2.98738,-2.69002 -5.95959,-5.39605 -8.92578,-8.10938 -0.75036,-0.68461 -0.75036,-0.68461 -1.51587,-1.38306 -1.37631,-1.26098 -2.74299,-2.53245 -4.10913,-3.80444 -0.79664,-0.68449 -1.59328,-1.36898 -2.41406,-2.07422 -1.58626,-1.9254 -1.58626,-1.9254 -1.53157,-3.90587 9.99834,-21.3601 35.26261,-35.996354 54.94531,-47.019531 0.7172,-0.407183 1.4344,-0.814365 2.17334,-1.233887 59.402,-33.509163 138.83333,-52.766113 206.82666,-52.766113 z"
       fill="#fecc36"
       id="path4"
       style="stroke:#000000;stroke-width:10" />
    <path
       d="m 121.2757,23.982769 c 64.64363,4.972588 129.90395,16.000184 189,44 0.73412,0.346274 1.46824,0.692549 2.22461,1.049316 4.64828,2.213005 9.22367,4.54615 13.77539,6.950684 0.71994,0.375923 1.43988,0.751846 2.18164,1.13916 15.98848,8.396357 29.83795,18.320768 42.81836,30.860841 0.75023,0.71027 1.50047,1.42055 2.27344,2.15234 4.74326,4.58879 8.80071,9.54776 12.72656,14.84766 -1.37353,3.11836 -2.91839,5.11865 -5.41406,7.42578 -1.01901,0.94843 -1.01901,0.94843 -2.0586,1.91602 -1.06541,0.97549 -1.06541,0.97549 -2.15234,1.9707 -0.68707,0.63873 -1.37414,1.27746 -2.08203,1.93555 -4.07128,3.76956 -8.2143,7.44689 -12.3999,11.08862 -2.84718,2.50166 -5.62079,5.07932 -8.39307,7.66333 -4.0847,3.78988 -8.20397,7.52175 -12.41797,11.16797 -3.21695,2.83067 -6.36174,5.7397 -9.51538,8.64038 -4.82269,4.43402 -9.69015,8.81691 -14.56665,13.19165 -1.66693,1.49971 -3.33359,2.99971 -5,4.5 -6.66667,6 -13.33333,12 -20,18 -0.82758,0.74508 -1.65516,1.49016 -2.50781,2.25781 -1.63959,1.47512 -3.28019,2.94911 -4.92188,4.42188 -4.54663,4.0818 -9.07036,8.18712 -13.57031,12.32031 -6.49842,5.96743 -13.00561,11.92526 -19.6875,17.6875 -0.62133,0.55301 -1.24266,1.10602 -1.88281,1.67578 -1.40411,1.2348 -2.81712,2.45993 -4.25293,3.65772 -2.10311,1.75895 -4.17113,3.55412 -6.23926,5.354 -0.69247,0.56485 -1.38494,1.1297 -2.09839,1.71167 -3.65735,3.23601 -3.65735,3.23601 -5.22143,7.7229 0.22712,3.97747 0.59016,5.90254 3.48741,8.78415 3.61201,2.37848 5.86301,2.44485 10.16444,2.51565 0.681,0.0165 1.36201,0.0331 2.06365,0.0501 2.15986,0.0483 4.31903,0.0698 6.47932,0.0905 1.47074,0.0282 2.94144,0.0581 4.41211,0.0898 3.59164,0.0737 7.18316,0.12338 10.77539,0.16016 0.002,0.69114 0.005,1.38229 0.007,2.09438 0.0591,16.81744 0.13468,33.63472 0.22847,50.452 0.045,8.13272 0.0844,16.2654 0.11073,24.3982 0.023,7.08859 0.0564,14.17705 0.10226,21.26553 0.0239,3.75328 0.0427,7.50643 0.0489,11.25979 0.007,4.19016 0.0376,8.37985 0.07,12.56989 -10e-4,1.24438 -0.003,2.48875 -0.004,3.77083 0.0125,1.14279 0.0251,2.28557 0.038,3.46299 0.007,1.48639 0.007,1.48639 0.014,3.00281 0.46136,3.26582 1.39243,5.10526 3.38476,7.72358 2.87752,1.96509 5.21594,2.2549 8.65704,2.27847 0.93106,0.0112 1.86211,0.0223 2.82138,0.0338 1.5213,0.003 1.5213,0.003 3.07334,0.007 1.07347,0.01 2.14695,0.0201 3.25296,0.0304 3.54946,0.0309 7.09885,0.0479 10.6484,0.0648 2.46052,0.0187 4.92103,0.0383 7.38154,0.0587 6.47723,0.0514 12.95449,0.091 19.43182,0.12814 7.77108,0.047 15.54205,0.10866 23.31305,0.16785 11.80678,0.0883 23.61354,0.158 35.42047,0.23126 0,32.01 0,64.02 0,97 -4.75789,-2.7188 -8.70782,-5.19099 -13,-8.4375 -13.83189,-10.13979 -29.41126,-18.10662 -44.84717,-25.51855 -2.39676,-1.16224 -4.77615,-2.35676 -7.15674,-3.55176 -63.20246,-31.3889 -131.46589,-43.76695 -200.99621,-51.49254 0,-134.64 0,-269.28 0,-408.000001 z"
       fill="#fecc36"
       id="path6"
       style="stroke:#000000;stroke-width:10" />
    <path
       d="m 399.2757,148.06871 c 2.48889,1.1375 3.8824,2.54027 5.75,4.53906 2.56425,2.66306 5.13213,5.21701 7.9375,7.625 3.63777,3.13035 7.16889,6.36238 10.6875,9.625 4.66154,4.32018 9.35606,8.59869 14.08984,12.83985 2.90429,2.61788 5.7829,5.26265 8.66016,7.91015 3.19367,2.93802 6.39895,5.8555 9.6875,8.6875 4.68634,4.05757 9.17308,8.32972 13.69409,12.56909 3.74477,3.50526 7.52767,6.94356 11.41528,10.29029 2.86327,2.51881 5.65599,5.11131 8.45313,7.70312 4.69976,4.35439 9.42559,8.67562 14.19922,12.94922 1.73765,1.55857 3.46868,3.12454 5.19531,4.69531 1.35158,1.22784 1.35158,1.22784 2.73047,2.48047 0.81469,0.7425 1.62937,1.485 2.46875,2.25 1.91391,1.79341 1.91391,1.79341 4.03125,2.75 0,0.66 0,1.32 0,2 -0.90492,0.12955 -0.90492,0.12955 -1.82812,0.26172 -0.79922,0.14051 -1.59844,0.28102 -2.42188,0.42578 -0.78891,0.12762 -1.57781,0.25524 -2.39062,0.38672 -3.26898,1.2827 -4.41356,3.03047 -6.35938,5.92578 -0.59817,2.78746 -0.59817,2.78746 -0.51898,5.80232 -0.0139,1.15962 -0.0278,2.31923 -0.0422,3.51398 0.008,1.89461 0.008,1.89461 0.0152,3.8275 -0.009,1.35049 -0.0192,2.70096 -0.0313,4.05142 -0.0279,3.65876 -0.0313,7.31719 -0.0303,10.97604 -0.003,3.82643 -0.0288,7.65271 -0.052,11.47906 -0.0406,7.24239 -0.0609,14.4847 -0.074,21.72719 -0.0188,9.78912 -0.0689,19.57807 -0.11724,29.36707 -0.0753,15.41847 -0.10887,30.83674 -0.1493,46.25542 -22.44,0 -44.88,0 -68,0 -0.0374,-6.54844 -0.0748,-13.09687 -0.11329,-19.84375 -0.0303,-4.15627 -0.0614,-8.31251 -0.0957,-12.46875 -0.0543,-6.59242 -0.10537,-13.18477 -0.13745,-19.77734 -0.0261,-5.31695 -0.0665,-10.63362 -0.11675,-15.95039 -0.0166,-2.02527 -0.0282,-4.05058 -0.0344,-6.0759 -0.01,-2.84375 -0.0378,-5.68678 -0.07,-8.53035 10e-4,-0.83151 0.003,-1.66301 0.004,-2.51972 -0.12173,-7.63313 -1.96726,-14.19877 -7.43655,-19.8338 -3.11283,-1.91895 -5.50163,-2.25966 -9.13233,-2.29052 -1.02141,-0.0128 -2.04282,-0.0255 -3.09518,-0.0387 -1.09797,-0.002 -2.19594,-0.004 -3.32718,-0.007 -1.13431,-0.007 -2.26861,-0.0133 -3.43729,-0.0202 -2.39898,-0.0101 -4.79799,-0.0148 -7.19699,-0.0145 -3.66535,-0.004 -7.32949,-0.0407 -10.99463,-0.0786 -2.33203,-0.006 -4.66406,-0.01 -6.99609,-0.0117 -1.09392,-0.0144 -2.18784,-0.0287 -3.31491,-0.0435 -6.15348,0.0368 -9.85612,0.33268 -14.5054,4.50448 -3.5765,4.63978 -5.10347,8.22332 -5.15822,14.01166 -0.01,0.78802 -0.0196,1.57603 -0.0297,2.38792 -0.006,0.85524 -0.0115,1.71048 -0.0174,2.59163 -0.01,0.90767 -0.0198,1.81534 -0.03,2.75051 -0.0316,2.99752 -0.0564,5.99507 -0.0811,8.99266 -0.0206,2.07937 -0.0416,4.15873 -0.063,6.2381 -0.0552,5.47111 -0.10461,10.94227 -0.15285,16.41345 -0.0591,6.56545 -0.12529,13.13084 -0.1903,19.69624 -0.098,9.97257 -0.18685,19.94518 -0.27747,29.91783 -22.44,0 -44.88,0 -68,0 -0.0374,-9.75949 -0.0748,-19.51898 -0.11328,-29.57422 -0.0303,-6.17514 -0.0613,-12.35027 -0.0957,-18.52539 -0.0545,-9.80589 -0.10593,-19.61173 -0.13746,-29.41772 -0.023,-7.14133 -0.0564,-14.28252 -0.10226,-21.42374 -0.0239,-3.78123 -0.0427,-7.56233 -0.0489,-11.34363 -0.006,-3.55988 -0.026,-7.11941 -0.0567,-10.67916 -0.013,-1.92773 -0.0112,-3.85553 -0.009,-5.7833 -0.0125,-1.1512 -0.0251,-2.3024 -0.038,-3.48848 -0.005,-0.9983 -0.009,-1.9966 -0.014,-3.02516 -0.45623,-3.248 -1.45204,-5.10649 -3.38476,-7.7392 -3.44451,-2.29634 -5.93812,-2.54016 -10,-3 0,-2 0,-2 1.22266,-3.23437 0.60714,-0.50016 1.21429,-1.00032 1.83984,-1.51563 4.27088,-3.62378 8.35789,-7.41466 12.4375,-11.25 4.47824,-4.19958 8.96971,-8.36267 13.62109,-12.37109 3.14711,-2.72837 6.22848,-5.52966 9.32031,-8.32031 1.65112,-1.48979 3.3046,-2.97697 4.96094,-4.46094 4.77941,-4.28365 9.51467,-8.61091 14.22266,-12.97266 4.08745,-3.78546 8.20462,-7.52231 12.41797,-11.16797 2.34262,-2.04336 4.64976,-4.12384 6.95703,-6.20703 2.91489,-2.6318 5.84273,-5.24287 8.8125,-7.8125 3.62942,-3.15826 7.15973,-6.41688 10.6875,-9.6875 4.16648,-3.86208 8.34401,-7.69889 12.66015,-11.39453 1.34722,-1.17559 2.66361,-2.38676 3.96094,-3.61719 0.70254,-0.65613 1.40508,-1.31226 2.12891,-1.98828 0.6239,-0.59812 1.24781,-1.19625 1.89062,-1.8125 1.85944,-1.18726 1.85944,-1.18726 3.85944,-1.10132 z"
       fill="#fecc36"
       id="path10"
       style="stroke:#000000;stroke-width:10" />
    <path
       d="m 697.2757,78.982769 h 42.09764 V 505.98277 H 479.2757 c 53.06583,-35.37722 131.19467,-46.40245 193.53125,-51.55078 l 3.19995,-0.26465 c 1.99162,-0.1597 3.98397,-0.31069 5.97705,-0.45117 6.38629,-0.42883 6.38629,-0.42883 12.29175,-2.7334 2.34959,-3.52439 2.25322,-4.95862 2.26171,-9.13195 l 0.0226,-3.91317 c -0.002,-1.44144 -0.004,-2.88288 -0.006,-4.32431 0.005,-1.52464 0.0109,-3.04928 0.0176,-4.57392 0.0159,-4.20042 0.0192,-8.40077 0.0206,-12.60121 0.004,-4.52557 0.0188,-9.05111 0.0326,-13.57666 0.0223,-7.84442 0.0373,-15.68882 0.0474,-23.53327 0.0146,-11.34183 0.0401,-22.68361 0.0683,-34.02541 0.0455,-18.40007 0.0821,-36.80014 0.11314,-55.20023 0.0302,-17.87696 0.0645,-35.75391 0.10449,-53.63086 l 0.007,-3.33761 c 0.0124,-5.52531 0.0248,-11.05062 0.0373,-16.57593 0.10362,-45.85847 0.19266,-91.71696 0.2726,-137.575471 z"
       fill="#fecb35"
       id="path12"
       style="stroke:#000000;stroke-width:10"
       sodipodi:nodetypes="ccccccccccccccscssssc" />
    <path
       d="m 55.160822,78.982769 h 44.114873 l 0.0044,5.751637 c 0.03568,45.023164 0.09188,90.046254 0.173477,135.069364 0.01002,5.53769 0.01986,11.07539 0.0296,16.61308 l 0.0059,3.34087 c 0.03105,17.86754 0.04801,35.73507 0.05979,53.60263 0.0124,18.32434 0.03987,36.64861 0.08142,54.97291 0.02518,11.31338 0.0385,22.62665 0.03682,33.94006 -3e-5,7.75075 0.01454,15.50139 0.04073,23.2521 0.01469,4.4764 0.02281,8.95257 0.01364,13.429 -0.0082,4.09476 0.0018,8.18905 0.02653,12.28374 0.0057,1.48457 0.0046,2.96919 -0.0038,4.45375 -0.01047,2.01194 0.0059,4.02397 0.02368,6.03586 l 0.0046,3.39217 c 0.618118,3.5166 1.751158,4.66519 4.503208,6.86283 2.95715,1.47857 6.05314,1.39471 9.30469,1.61328 1.53389,0.11177 3.06774,0.2241 4.60156,0.33692 l 2.45312,0.17736 c 17.0037,1.25003 33.82108,3.02219 50.64064,5.87244 l 2.03344,0.34314 c 45.23452,7.67124 89.17436,18.65355 130.82349,38.18665 4.69622,2.19672 9.41886,4.33453 14.14307,6.47021 v 2 H 55.160822 Z"
       fill="#fece36"
       id="path14"
       style="stroke:#000000;stroke-width:10"
       sodipodi:nodetypes="cccssccccccccccccccccccccc" />
    <path
       d="m 409.2757,423.98277 c 36.63,0 73.26,0 111,0 -3.63279,1.81639 -4.69975,2.25143 -8.46722,2.27847 -0.88899,0.0112 -1.77797,0.0223 -2.6939,0.0338 -0.96745,0.002 -1.93489,0.004 -2.93166,0.007 -1.02471,0.01 -2.04942,0.0201 -3.10518,0.0304 -3.38713,0.0309 -6.77419,0.0479 -10.16142,0.0648 -2.34842,0.0187 -4.69682,0.0383 -7.04523,0.0587 -6.18131,0.0514 -12.36265,0.091 -18.54406,0.12814 -7.4165,0.047 -14.83288,0.10866 -22.24929,0.16785 -11.2673,0.0883 -22.53459,0.15799 -33.80204,0.23126 -0.33,30.69 -0.66,61.38 -1,93 -0.33,0 -0.66,0 -1,0 0,-31.68 0,-63.36 0,-96 z"
       fill="#edd239"
       id="path32"
       style="stroke:#000000;stroke-width:10" />
    <path
       d="m 414.2757,344.98277 c 1.875,1.0625 1.875,1.0625 3,3 0.539,3.58591 0.74233,6.78883 -1.1875,9.9375 -2.38934,1.40065 -4.02922,1.92996 -6.8125,2.0625 -2.28319,-1.14159 -4.19013,-2.19013 -6,-4 -0.28814,-2.92943 -0.48614,-5.14948 0,-8 3.43294,-4.13973 5.94673,-4.64781 11,-3 z"
       fill="#facc37"
       id="path34"
       style="stroke:none;stroke-width:10" />
  </g>
</svg>
